<mxfile host="app.diagrams.net" modified="2021-03-31T18:45:20.062Z" agent="5.0 (Macintosh; Intel Mac OS X 10_15_7) AppleWebKit/537.36 (KHTML, like Gecko) Chrome/89.0.4389.105 Safari/537.36" etag="iFw1C_wtHIzi90FAHmY0" version="14.5.4" type="github">
  <diagram id="7eAGZfeV-LihmVY53dOc" name="Overview">
    <mxGraphModel dx="788" dy="702" grid="1" gridSize="10" guides="1" tooltips="1" connect="1" arrows="1" fold="1" page="1" pageScale="1" pageWidth="850" pageHeight="1100" math="0" shadow="0">
      <root>
        <mxCell id="0" />
        <mxCell id="1" parent="0" />
        <mxCell id="rTCVgAPROJNHZOBVz9fI-6" value="Pay Gas" style="edgeStyle=orthogonalEdgeStyle;rounded=0;orthogonalLoop=1;jettySize=auto;html=1;entryX=0.75;entryY=0;entryDx=0;entryDy=0;exitX=0;exitY=0.75;exitDx=0;exitDy=0;" parent="1" source="rTCVgAPROJNHZOBVz9fI-1" target="rTCVgAPROJNHZOBVz9fI-2" edge="1">
          <mxGeometry relative="1" as="geometry" />
        </mxCell>
        <mxCell id="rTCVgAPROJNHZOBVz9fI-10" value="Create Contract (Authority)" style="edgeStyle=orthogonalEdgeStyle;rounded=0;orthogonalLoop=1;jettySize=auto;html=1;exitX=0;exitY=0.5;exitDx=0;exitDy=0;entryX=0.25;entryY=0;entryDx=0;entryDy=0;" parent="1" source="rTCVgAPROJNHZOBVz9fI-1" target="rTCVgAPROJNHZOBVz9fI-2" edge="1">
          <mxGeometry x="-0.2653" relative="1" as="geometry">
            <mxPoint as="offset" />
          </mxGeometry>
        </mxCell>
        <mxCell id="rTCVgAPROJNHZOBVz9fI-1" value="Gas Wallet" style="rounded=0;whiteSpace=wrap;html=1;" parent="1" vertex="1">
          <mxGeometry x="545" y="20" width="120" height="60" as="geometry" />
        </mxCell>
        <mxCell id="rTCVgAPROJNHZOBVz9fI-5" value="Grant ERC20 Transfer" style="edgeStyle=orthogonalEdgeStyle;rounded=0;orthogonalLoop=1;jettySize=auto;html=1;entryX=0;entryY=0.75;entryDx=0;entryDy=0;exitX=0.25;exitY=1;exitDx=0;exitDy=0;" parent="1" source="rTCVgAPROJNHZOBVz9fI-2" target="rTCVgAPROJNHZOBVz9fI-4" edge="1">
          <mxGeometry x="0.2195" relative="1" as="geometry">
            <mxPoint as="offset" />
          </mxGeometry>
        </mxCell>
        <mxCell id="rTCVgAPROJNHZOBVz9fI-2" value="Smart Contract" style="rounded=0;whiteSpace=wrap;html=1;" parent="1" vertex="1">
          <mxGeometry x="270" y="160" width="120" height="60" as="geometry" />
        </mxCell>
        <mxCell id="rTCVgAPROJNHZOBVz9fI-11" value="Signed Request Grant" style="edgeStyle=orthogonalEdgeStyle;rounded=0;orthogonalLoop=1;jettySize=auto;html=1;exitX=0;exitY=0.25;exitDx=0;exitDy=0;entryX=1;entryY=0.25;entryDx=0;entryDy=0;" parent="1" source="rTCVgAPROJNHZOBVz9fI-3" target="rTCVgAPROJNHZOBVz9fI-2" edge="1">
          <mxGeometry x="-0.0323" relative="1" as="geometry">
            <mxPoint as="offset" />
          </mxGeometry>
        </mxCell>
        <mxCell id="rTCVgAPROJNHZOBVz9fI-3" value="Game" style="rounded=0;whiteSpace=wrap;html=1;" parent="1" vertex="1">
          <mxGeometry x="545" y="160" width="120" height="60" as="geometry" />
        </mxCell>
        <mxCell id="rTCVgAPROJNHZOBVz9fI-4" value="User Wallet" style="rounded=0;whiteSpace=wrap;html=1;" parent="1" vertex="1">
          <mxGeometry x="545" y="240" width="120" height="60" as="geometry" />
        </mxCell>
        <mxCell id="rTCVgAPROJNHZOBVz9fI-7" value="Private Key" style="endArrow=open;html=1;endSize=12;startArrow=diamondThin;startSize=14;startFill=0;edgeStyle=orthogonalEdgeStyle;exitX=0.25;exitY=0;exitDx=0;exitDy=0;entryX=0.25;entryY=1;entryDx=0;entryDy=0;" parent="1" source="rTCVgAPROJNHZOBVz9fI-3" target="rTCVgAPROJNHZOBVz9fI-1" edge="1">
          <mxGeometry relative="1" as="geometry">
            <mxPoint x="560" y="170" as="sourcePoint" />
            <mxPoint x="720" y="170" as="targetPoint" />
          </mxGeometry>
        </mxCell>
        <mxCell id="rTCVgAPROJNHZOBVz9fI-17" value="Play" style="edgeStyle=orthogonalEdgeStyle;rounded=0;orthogonalLoop=1;jettySize=auto;html=1;" parent="1" source="rTCVgAPROJNHZOBVz9fI-16" target="rTCVgAPROJNHZOBVz9fI-3" edge="1">
          <mxGeometry relative="1" as="geometry" />
        </mxCell>
        <mxCell id="rTCVgAPROJNHZOBVz9fI-16" value="User" style="shape=umlActor;verticalLabelPosition=bottom;verticalAlign=top;html=1;" parent="1" vertex="1">
          <mxGeometry x="740" y="160" width="30" height="60" as="geometry" />
        </mxCell>
        <mxCell id="c5QjXPqIrnwtgLJtlVQ_-3" style="edgeStyle=orthogonalEdgeStyle;rounded=0;orthogonalLoop=1;jettySize=auto;html=1;entryX=0;entryY=0.5;entryDx=0;entryDy=0;" edge="1" parent="1" source="c5QjXPqIrnwtgLJtlVQ_-1" target="rTCVgAPROJNHZOBVz9fI-2">
          <mxGeometry relative="1" as="geometry" />
        </mxCell>
        <mxCell id="c5QjXPqIrnwtgLJtlVQ_-4" value="Deposit Grant funds" style="edgeLabel;html=1;align=center;verticalAlign=middle;resizable=0;points=[];" vertex="1" connectable="0" parent="c5QjXPqIrnwtgLJtlVQ_-3">
          <mxGeometry x="-0.1333" relative="1" as="geometry">
            <mxPoint as="offset" />
          </mxGeometry>
        </mxCell>
        <mxCell id="c5QjXPqIrnwtgLJtlVQ_-5" style="edgeStyle=orthogonalEdgeStyle;rounded=0;orthogonalLoop=1;jettySize=auto;html=1;entryX=0;entryY=0.25;entryDx=0;entryDy=0;" edge="1" parent="1" source="c5QjXPqIrnwtgLJtlVQ_-1" target="rTCVgAPROJNHZOBVz9fI-1">
          <mxGeometry relative="1" as="geometry">
            <Array as="points">
              <mxPoint x="60" y="190" />
              <mxPoint x="60" y="35" />
            </Array>
          </mxGeometry>
        </mxCell>
        <mxCell id="c5QjXPqIrnwtgLJtlVQ_-6" value="Deposit Gas funds" style="edgeLabel;html=1;align=center;verticalAlign=middle;resizable=0;points=[];" vertex="1" connectable="0" parent="c5QjXPqIrnwtgLJtlVQ_-5">
          <mxGeometry x="-0.1618" y="-1" relative="1" as="geometry">
            <mxPoint x="34.96" y="-2" as="offset" />
          </mxGeometry>
        </mxCell>
        <mxCell id="c5QjXPqIrnwtgLJtlVQ_-1" value="&lt;ul&gt;&lt;li&gt;&lt;span&gt;Admin&lt;/span&gt;&lt;/li&gt;&lt;li&gt;&lt;span&gt;DAO&lt;/span&gt;&lt;/li&gt;&lt;li&gt;&lt;span&gt;Benefactor&lt;/span&gt;&lt;/li&gt;&lt;/ul&gt;" style="shape=umlActor;verticalLabelPosition=bottom;verticalAlign=top;html=1;align=left;spacingLeft=-40;" vertex="1" parent="1">
          <mxGeometry x="100" y="160" width="30" height="60" as="geometry" />
        </mxCell>
      </root>
    </mxGraphModel>
  </diagram>
</mxfile>
